<svg xmlns="http://www.w3.org/2000/svg" viewBox="0 0 533.28 533.28"><defs><style>.cls-1{fill:#fff;}</style></defs><g id="Crafting_Success_Stories_Layer_2_copy_2_Image" data-name="Crafting Success Stories + Layer 2 copy 2 Image"><path class="cls-1" d="M202.31,345.6H85.67a8.81,8.81,0,0,1,.87-.28,5.24,5.24,0,0,0,4-5c-1.91-.42-2.19-.31-3.26,1.2a2.42,2.42,0,0,1-2.61,1,2.06,2.06,0,0,1-1.93-1.83,40.62,40.62,0,0,1-.14-5.73,2.43,2.43,0,0,1,2.21-2.57c1.17-.19,2.11.41,2.82,1.75.15.28.43.65.69.68a17.85,17.85,0,0,0,2.34,0,10.64,10.64,0,0,0-.17-1.09,5.82,5.82,0,0,0-4.62-4.31H201.83a2.34,2.34,0,0,1-.5.25,5.2,5.2,0,0,0-4.25,5.1c-.06,1.4,0,2.8,0,4.19,0,4.07,1.12,5.47,5.09,6.39C202.21,345.46,202.26,345.55,202.31,345.6Zm-24.78-.37h2.68V334.56a2.3,2.3,0,0,1,.77.93c1.46,3,2.9,6,4.38,8.92.18.35.53.82.83.85a28.22,28.22,0,0,0,3.05,0V329.86h-2.69V340.6a3.36,3.36,0,0,1-1-1.28c-1.4-2.88-2.77-5.76-4.2-8.62a1.61,1.61,0,0,0-1-.87,23,23,0,0,0-2.89,0Zm-76.73,0c0-1.68,0-3.27,0-4.85,0-.47.23-1.22.53-1.32a1.39,1.39,0,0,1,1.88.75c.79,1.6,1.71,3.15,2.62,4.7.18.31.51.7.81.73.92.09,1.86,0,3,0L106,339c.4-.21.72-.36,1-.54,1.63-1,2.32-2.93,1.89-5.28a3.74,3.74,0,0,0-3.24-3.25c-2.49-.16-5,0-7.56,0v15.41Zm28.07.05c-.19-.52-.32-.89-.46-1.26l-5-13.07c-.24-.61-.33-1.23-1.3-1.23s-1.11.54-1.36,1.18c-1.64,4.32-3.3,8.64-5,13-.17.43-.3.87-.47,1.38h2.92a8.3,8.3,0,0,0,.5-1.36c.2-1,.75-1.26,1.71-1.2a35.82,35.82,0,0,0,3.59,0c.66,0,1.13.18,1.21.85.19,1.6,1.16,2,2.58,1.74A8.64,8.64,0,0,1,128.87,345.31Zm15.49-9c-1.74,0-3.41,0-5.08,0-.76,0-1.07-.22-1.05-1,.07-3.47-.44-2.72,2.72-2.81.6,0,1.2,0,1.8,0h2.76v-2.68h-10v15.36h2.7c0-1.61.07-3.13,0-4.65-.07-1.12.26-1.57,1.45-1.49,1.54.1,3.09,0,4.69,0Zm12.61,8.9V332.48h4.18v-2.62H149.94c0,.42,0,.77-.08,1.12-.17,1.15.17,1.73,1.47,1.57a24,24,0,0,1,2.83,0v12.72Zm12.84-15.38H167v15.36h2.83Z"/><path class="cls-1" d="M402,329.52h63.6c-.3.09-.59.2-.9.27a4.41,4.41,0,0,0-3.83,4.5c0,2.42,1.09,3.75,3.73,4.34,1,.24,2.11.4,3.15.66.75.19,1.43.67,1.23,1.5a2.94,2.94,0,0,1-1.16,1.59,2.71,2.71,0,0,1-1.84.33c-1.53-.28-3-.73-4.7-1.15l-1.07,2c1.54,1.41,3.39,1.61,5.15,2.05H401.52a5.1,5.1,0,0,1,.55-.19c3-.52,4.6-2.23,4.73-5.24.08-1.91.07-3.83,0-5.74a4.75,4.75,0,0,0-2.57-4.07A16.12,16.12,0,0,0,402,329.52Zm12.38.27v15.47h2.79v-6a1.77,1.77,0,0,1,2.55,1c.73,1.51,1.6,2.95,2.44,4.4.17.28.45.67.7.69,1,.08,2,0,3.17,0-1.3-2.25-2.46-4.28-3.65-6.35.36-.18.65-.31.92-.47,1.73-1,2.47-3.1,1.95-5.47a3.83,3.83,0,0,0-3.55-3.22C419.31,329.71,416.91,329.79,414.38,329.79Zm39.46.06H443.68v15.4h10.21v-2.7h-7.43v-2c0-1.59,0-1.59,1.54-1.59h4.77v-2.72c-1.84,0-3.59,0-5.35,0-.32,0-.87-.35-.9-.58-.1-1,0-2,0-3.05h5.19c2.56,0,2.56,0,2.29-2.57A1.17,1.17,0,0,0,453.84,329.85Zm-21-.06v15.47h2.85V329.79Z"/><path class="cls-1" d="M287,329.52h34.09c-.68.21-1.37.38-2,.65a4.29,4.29,0,0,0-2.69,4.5,3.77,3.77,0,0,0,3.18,3.81c1,.26,2,.39,3,.61s1.92.47,1.93,1.74c0,1-.7,1.63-2,1.85a3.64,3.64,0,0,1-1.43.05c-1.41-.34-2.8-.76-4.28-1.18,0,.07-.19.3-.33.54-.94,1.66-1,1.74.82,2.46a32,32,0,0,0,3.78,1.05H286.79c.34-.1.67-.21,1-.29,2.25-.53,4.14-3,3.87-5.1-1.26,0-2.62-.54-3.29,1.33-.37,1-1.49,1.21-2.58,1a2.05,2.05,0,0,1-1.89-1.87,43.81,43.81,0,0,1-.1-5.73,2.33,2.33,0,0,1,2.14-2.48c1.2-.2,2.14.39,2.83,1.72.14.29.41.67.66.7a21.44,21.44,0,0,0,2.43,0c-.09-.51-.11-.83-.19-1.12A5.79,5.79,0,0,0,287,329.52Zm12.15,15.71H309.5a12.7,12.7,0,0,1,0-1.39c.13-1-.23-1.35-1.25-1.29-1.32.08-2.64,0-4,0-2.37,0-2.32,0-2.37-2.32,0-1.07.3-1.41,1.36-1.35,1.65.08,3.32,0,5,0v-2.7h-6.24v-3.67h5.24c2.46,0,2.54-.1,2.12-2.56,0,0,0-.07-.09-.13H299.18Z"/><path class="cls-1" d="M230.63,345.6H203a5.81,5.81,0,0,1,.78-.24,4.75,4.75,0,0,0,4.26-3.81,35.21,35.21,0,0,0,.33-4.76h-5.26v2.53a12.46,12.46,0,0,0,1.34.05c.94-.06,1.09.39.87,1.19a2.54,2.54,0,0,1-2.65,2c-1.47,0-2.54-.7-2.64-2.08a30,30,0,0,1,.07-5.84,2.53,2.53,0,0,1,4.27-1.4c1.18,1.28,2.39.74,3.8.65a9.12,9.12,0,0,0-2-3,11.53,11.53,0,0,0-2.88-1.34h27.6a4,4,0,0,1-.66.23c-2.82.5-4.25,2-4.27,4.59s1.11,3.68,4,4.32a18.57,18.57,0,0,1,3,.7,1.91,1.91,0,0,1,1,1.36,2.38,2.38,0,0,1-.94,1.59,2.46,2.46,0,0,1-1.69.42c-1.65-.26-3.28-.66-5.07-1.05,0-.05-.12.17-.26.41-.94,1.65-1,1.74.83,2.46A34.11,34.11,0,0,0,230.63,345.6Z"/><path class="cls-1" d="M249.11,345.6H231.59c.38-.09.75-.21,1.13-.27,2.5-.37,4.05-1.91,4.16-4.19.14-2.63-.88-3.92-3.65-4.62a17.61,17.61,0,0,1-3.12-.8,2.61,2.61,0,0,1-1.3-1.61c-.2-.91.6-1.39,1.43-1.62a2,2,0,0,1,.94-.12c1.41.25,2.82.55,4.4.87l1.08-2.22-4.35-1.5h35.28a2.5,2.5,0,0,1-.53.23,4.89,4.89,0,0,0-4.21,4.92c-.08,1.83-.07,3.67,0,5.5.09,3.06,1.64,4.73,4.68,5.23a2.79,2.79,0,0,1,.55.2h-18a2.92,2.92,0,0,1,.53-.21c2.86-.47,4.42-1.91,4.57-4.82.18-3.5,0-7,0-10.53,0-.06-.09-.12-.14-.18h-2.59v1.37c0,2.8,0,5.6,0,8.39,0,1.65-.65,2.58-1.94,2.93-2.2.58-3.71-.6-3.75-3,0-2.79,0-5.59,0-8.39,0-.42,0-.84-.07-1.28h-2.61a3.42,3.42,0,0,0-.1.53c0,3.19-.1,6.39,0,9.58.13,3.39,1.47,4.78,4.86,5.46A.88.88,0,0,1,249.11,345.6Z"/><path class="cls-1" d="M367.2,345.6H340.08c.33-.08.67-.2,1-.25,2.6-.36,4.15-1.87,4.3-4.19.16-2.63-.9-4-3.75-4.67a17.84,17.84,0,0,1-3.21-.86,2.16,2.16,0,0,1-1.09-1.6c0-.47.68-1,1.16-1.42a1.62,1.62,0,0,1,1.15-.23c1.42.24,2.82.55,4.41.87.25-.49.63-1.25,1.1-2.21L341,329.52H367.2a4.27,4.27,0,0,1-.65.24c-2.65.53-4,2.07-4.07,4.55s1.1,3.72,3.87,4.34a23.11,23.11,0,0,1,3.14.72,1.92,1.92,0,0,1,1.07,1.35,2.2,2.2,0,0,1-.95,1.57,3.2,3.2,0,0,1-2.05.42c-1.54-.25-3-.72-4.66-1.13l-.43.72c-.79,1.42-.82,1.51.74,2.15A39.86,39.86,0,0,0,367.2,345.6Z"/><path class="cls-1" d="M400.8,345.6H368.16a9.24,9.24,0,0,1,1-.24c2.6-.37,4.15-1.87,4.3-4.2.17-2.62-.9-4-3.74-4.67a18.17,18.17,0,0,1-3.22-.86,2.18,2.18,0,0,1-1.08-1.6c0-.47.68-1,1.16-1.42a1.57,1.57,0,0,1,1.15-.22c1.42.23,2.82.55,4.41.87l1.1-2.22-4.13-1.52h31.2a4.34,4.34,0,0,1-.65.25,5.09,5.09,0,0,0-4.1,4.83,57.47,57.47,0,0,0,0,5.87,5.13,5.13,0,0,0,4.43,4.91A7.94,7.94,0,0,1,400.8,345.6Zm-22.24-15.78c0,.63,0,1.15,0,1.66-.08.82.23,1.14,1.08,1.09,1-.06,2.05,0,3.2,0v12.67h2.93V332.5h4.14v-2.68Z"/><path class="cls-1" d="M269,329.52h16.56a1,1,0,0,1-.29.18c-3.13.77-4.42,2.35-4.48,5.56,0,1.6,0,3.2,0,4.79.1,3.15,1.61,4.84,4.7,5.35a2.79,2.79,0,0,1,.55.2H268.79c.34-.1.67-.21,1-.29,2.25-.53,4.15-3,3.87-5.09-1.27,0-2.61-.52-3.29,1.33-.36,1-1.49,1.21-2.57,1a2.06,2.06,0,0,1-1.9-1.87,45.63,45.63,0,0,1-.1-5.73,2.33,2.33,0,0,1,2.14-2.48c1.2-.21,2.14.38,2.84,1.71.14.29.41.68.65.71a20,20,0,0,0,2.32,0,3.11,3.11,0,0,0,.06-.53,5.43,5.43,0,0,0-.13-.58A5.81,5.81,0,0,0,269,329.52Z"/><path class="cls-1" d="M323,329.52h16.08c-.68.21-1.37.38-2,.65a4.29,4.29,0,0,0-2.69,4.5,3.75,3.75,0,0,0,3.17,3.81c1,.26,2,.39,3.05.62s1.92.46,1.92,1.73c0,1-.7,1.63-2,1.85a3.84,3.84,0,0,1-1.43.05c-1.41-.34-2.79-.77-4.27-1.18-.09.14-.28.44-.45.75-.8,1.42-.83,1.51.73,2.14a38.1,38.1,0,0,0,4,1.16h-17c.33-.08.66-.2,1-.25,2.59-.35,4.15-1.87,4.29-4.19.16-2.64-.89-4-3.74-4.67a18.17,18.17,0,0,1-3.22-.86,2.22,2.22,0,0,1-1.09-1.6c0-.47.68-1,1.17-1.42a1.59,1.59,0,0,1,1.14-.23c1.42.24,2.83.55,4.42.87l1.1-2.21Z"/><path d="M400.8,345.6a7.94,7.94,0,0,0-.8-.22,5.13,5.13,0,0,1-4.43-4.91,57.47,57.47,0,0,1,0-5.87,5.09,5.09,0,0,1,4.1-4.83,4.34,4.34,0,0,0,.65-.25H402a16.12,16.12,0,0,1,2.2.84,4.75,4.75,0,0,1,2.57,4.07c.1,1.91.11,3.83,0,5.74-.13,3-1.72,4.72-4.73,5.24a5.1,5.1,0,0,0-.55.19Zm3.08-8h0a25.19,25.19,0,0,0,0-2.75,2.53,2.53,0,0,0-2.66-2.4,2.45,2.45,0,0,0-2.64,2.38,38.64,38.64,0,0,0,0,5.38,2.48,2.48,0,0,0,2.63,2.41,2.59,2.59,0,0,0,2.69-2.51C404,339.29,403.88,338.45,403.88,337.61Z"/><path d="M203.27,329.52a11.53,11.53,0,0,1,2.88,1.34,9.12,9.12,0,0,1,2,3c-1.41.09-2.62.63-3.8-.65a2.53,2.53,0,0,0-4.27,1.4,30,30,0,0,0-.07,5.84c.1,1.38,1.17,2.07,2.64,2.08a2.54,2.54,0,0,0,2.65-2c.22-.8.07-1.25-.87-1.19a12.46,12.46,0,0,1-1.34-.05v-2.53h5.26a35.21,35.21,0,0,1-.33,4.76,4.75,4.75,0,0,1-4.26,3.81,5.81,5.81,0,0,0-.78.24h-.72c-.05-.05-.1-.14-.17-.15-4-.92-5.09-2.32-5.09-6.39,0-1.39,0-2.79,0-4.19a5.2,5.2,0,0,1,4.25-5.1,2.34,2.34,0,0,0,.5-.25Z"/><path d="M465.36,345.6c-1.76-.44-3.61-.64-5.15-2.05l1.07-2c1.67.42,3.17.87,4.7,1.15a2.71,2.71,0,0,0,1.84-.33,2.94,2.94,0,0,0,1.16-1.59c.2-.83-.48-1.31-1.23-1.5-1-.26-2.11-.42-3.15-.66-2.64-.59-3.77-1.92-3.73-4.34a4.41,4.41,0,0,1,3.83-4.5c.31-.07.6-.18.9-.27h1.92l4.17,1.53-1.34,2.56a6.6,6.6,0,0,0-4.77-1.18c-.9.16-1.75.49-1.81,1.59s.66,1.56,1.59,1.8,2.18.47,3.25.78c2.26.63,3.23,1.83,3.29,4a4.21,4.21,0,0,1-3.15,4.52c-.71.23-1.46.34-2.19.51Z"/><path d="M249.11,345.6a.88.88,0,0,0-.29-.18c-3.39-.68-4.73-2.07-4.86-5.46-.11-3.19,0-6.39,0-9.58a3.42,3.42,0,0,1,.1-.53h2.61c0,.44.07.86.07,1.28,0,2.8,0,5.6,0,8.39,0,2.43,1.55,3.61,3.75,3,1.29-.35,1.93-1.28,1.94-2.93,0-2.79,0-5.59,0-8.39v-1.37H255c.05.06.14.12.14.18,0,3.51.17,7,0,10.53-.15,2.91-1.71,4.35-4.57,4.82a2.92,2.92,0,0,0-.53.21Z"/><path d="M323,329.52l4.12,1.52-1.1,2.21c-1.59-.32-3-.63-4.42-.87a1.59,1.59,0,0,0-1.14.23c-.49.39-1.18.95-1.17,1.42a2.22,2.22,0,0,0,1.09,1.6,18.17,18.17,0,0,0,3.22.86c2.85.72,3.9,2,3.74,4.67-.14,2.32-1.7,3.84-4.29,4.19-.35,0-.68.17-1,.25h-1a32,32,0,0,1-3.78-1.05c-1.79-.72-1.76-.8-.82-2.46.14-.24.29-.47.33-.54,1.48.42,2.87.84,4.28,1.18a3.64,3.64,0,0,0,1.43-.05c1.3-.22,2-.88,2-1.85,0-1.27-1-1.52-1.93-1.74s-2-.35-3-.61a3.77,3.77,0,0,1-3.18-3.81,4.29,4.29,0,0,1,2.69-4.5c.65-.27,1.34-.44,2-.65Z"/><path d="M339.12,345.6a38.1,38.1,0,0,1-4-1.16c-1.56-.63-1.53-.72-.73-2.14.17-.31.36-.61.45-.75,1.48.41,2.86.84,4.27,1.18a3.84,3.84,0,0,0,1.43-.05c1.3-.22,2-.88,2-1.85,0-1.27-1-1.52-1.92-1.73s-2.05-.36-3.05-.62a3.75,3.75,0,0,1-3.17-3.81,4.29,4.29,0,0,1,2.69-4.5c.65-.27,1.34-.44,2-.65H341l4.12,1.52c-.47,1-.85,1.72-1.1,2.21-1.59-.32-3-.63-4.41-.87a1.62,1.62,0,0,0-1.15.23c-.48.39-1.17.95-1.16,1.42a2.16,2.16,0,0,0,1.09,1.6,17.84,17.84,0,0,0,3.21.86c2.85.72,3.91,2,3.75,4.67-.15,2.32-1.7,3.83-4.3,4.19-.34,0-.68.17-1,.25Z"/><path d="M369.12,329.52l4.13,1.52-1.1,2.22c-1.59-.32-3-.64-4.41-.87a1.57,1.57,0,0,0-1.15.22c-.48.39-1.18.95-1.16,1.42a2.18,2.18,0,0,0,1.08,1.6,18.17,18.17,0,0,0,3.22.86c2.84.72,3.91,2.05,3.74,4.67-.15,2.33-1.7,3.83-4.3,4.2a9.24,9.24,0,0,0-1,.24h-1a39.86,39.86,0,0,1-4-1.15c-1.56-.64-1.53-.73-.74-2.15l.43-.72c1.62.41,3.12.88,4.66,1.13a3.2,3.2,0,0,0,2.05-.42,2.2,2.2,0,0,0,.95-1.57,1.92,1.92,0,0,0-1.07-1.35,23.11,23.11,0,0,0-3.14-.72c-2.77-.62-3.9-1.9-3.87-4.34s1.42-4,4.07-4.55a4.27,4.27,0,0,0,.65-.24Z"/><path d="M232.31,329.52l4.35,1.5-1.08,2.22c-1.58-.32-3-.62-4.4-.87a2,2,0,0,0-.94.12c-.83.23-1.63.71-1.43,1.62a2.61,2.61,0,0,0,1.3,1.61,17.61,17.61,0,0,0,3.12.8c2.77.7,3.79,2,3.65,4.62-.11,2.28-1.66,3.82-4.16,4.19-.38.06-.75.18-1.13.27h-1a34.11,34.11,0,0,1-3.75-1.05c-1.8-.72-1.77-.81-.83-2.46.14-.24.3-.46.26-.41,1.79.39,3.42.79,5.07,1.05a2.46,2.46,0,0,0,1.69-.42,2.38,2.38,0,0,0,.94-1.59,1.91,1.91,0,0,0-1-1.36,18.57,18.57,0,0,0-3-.7c-2.9-.64-4-1.86-4-4.32s1.45-4.09,4.27-4.59a4,4,0,0,0,.66-.23Z"/><path d="M286.07,345.6a2.79,2.79,0,0,0-.55-.2c-3.09-.51-4.6-2.2-4.7-5.35,0-1.59,0-3.19,0-4.79.06-3.21,1.35-4.79,4.48-5.56a1,1,0,0,0,.29-.18H287a5.79,5.79,0,0,1,4.65,4.3c.08.29.1.61.19,1.12a21.44,21.44,0,0,1-2.43,0c-.25,0-.52-.41-.66-.7-.69-1.33-1.63-1.92-2.83-1.72a2.33,2.33,0,0,0-2.14,2.48,43.81,43.81,0,0,0,.1,5.73,2.05,2.05,0,0,0,1.89,1.87c1.09.19,2.21,0,2.58-1,.67-1.87,2-1.3,3.29-1.33.27,2.12-1.62,4.57-3.87,5.1-.34.08-.67.19-1,.29Z"/><path d="M269,329.52a5.81,5.81,0,0,1,4.65,4.3,5.43,5.43,0,0,1,.13.58,3.11,3.11,0,0,1-.06.53,20,20,0,0,1-2.32,0c-.24,0-.51-.42-.65-.71-.7-1.33-1.64-1.92-2.84-1.71A2.33,2.33,0,0,0,265.8,335a45.63,45.63,0,0,0,.1,5.73,2.06,2.06,0,0,0,1.9,1.87c1.08.2,2.21,0,2.57-1,.68-1.85,2-1.34,3.29-1.33.28,2.1-1.62,4.56-3.87,5.09-.33.08-.66.19-1,.29h-.72a2.79,2.79,0,0,0-.55-.2c-3-.5-4.59-2.17-4.68-5.23-.06-1.83-.07-3.67,0-5.5a4.89,4.89,0,0,1,4.21-4.92,2.5,2.5,0,0,0,.53-.23Z"/><path d="M85.91,329.52a5.82,5.82,0,0,1,4.62,4.31,10.64,10.64,0,0,1,.17,1.09,17.85,17.85,0,0,1-2.34,0c-.26,0-.54-.4-.69-.68-.71-1.34-1.65-1.94-2.82-1.75A2.43,2.43,0,0,0,82.64,335a40.62,40.62,0,0,0,.14,5.73,2.06,2.06,0,0,0,1.93,1.83,2.42,2.42,0,0,0,2.61-1c1.07-1.51,1.35-1.62,3.26-1.2a5.24,5.24,0,0,1-4,5,8.81,8.81,0,0,0-.87.28H85a3.23,3.23,0,0,0-.66-.23,4.88,4.88,0,0,1-4.56-5c-.08-1.39,0-2.79,0-4.19,0-4.14.82-5.3,4.69-6.61,0,0,0-.06.08-.09Z"/><path class="cls-1" d="M466.56,345.6c.73-.17,1.48-.28,2.19-.51a4.21,4.21,0,0,0,3.15-4.52c-.06-2.14-1-3.34-3.29-4-1.07-.31-2.17-.51-3.25-.78s-1.65-.72-1.59-1.8.91-1.43,1.81-1.59a6.6,6.6,0,0,1,4.77,1.18l1.34-2.56-4.17-1.53h4.56V345.6Z"/><path class="cls-1" d="M84.47,329.52s0,.08-.08.09c-3.87,1.31-4.69,2.47-4.69,6.61,0,1.4,0,2.8,0,4.19a4.88,4.88,0,0,0,4.56,5,3.23,3.23,0,0,1,.66.23H79.44V329.52Z"/><path d="M177.53,345.23V329.79a23,23,0,0,1,2.89,0,1.61,1.61,0,0,1,1,.87c1.43,2.86,2.8,5.74,4.2,8.62a3.36,3.36,0,0,0,1,1.28V329.86h2.69V345.3a28.22,28.22,0,0,1-3.05,0c-.3,0-.65-.5-.83-.85-1.48-3-2.92-5.94-4.38-8.92a2.3,2.3,0,0,0-.77-.93v10.67Z"/><path d="M100.8,345.26H98.11V329.85c2.56,0,5.07-.12,7.56,0a3.74,3.74,0,0,1,3.24,3.25c.43,2.35-.26,4.29-1.89,5.28-.3.18-.62.33-1,.54l3.64,6.34c-1.12,0-2.06.06-3,0-.3,0-.63-.42-.81-.73-.91-1.55-1.83-3.1-2.62-4.7a1.39,1.39,0,0,0-1.88-.75c-.3.1-.51.85-.53,1.32C100.76,342,100.8,343.58,100.8,345.26Zm0-9c1.41,0,2.65.08,3.86,0s1.48-.94,1.46-1.95-.39-1.73-1.5-1.77a24.69,24.69,0,0,0-3,0,1.12,1.12,0,0,0-.8.7A29.57,29.57,0,0,0,100.8,336.28Z"/><path d="M128.87,345.31a8.64,8.64,0,0,0-1,0c-1.42.23-2.39-.14-2.58-1.74-.08-.67-.55-.87-1.21-.85a35.82,35.82,0,0,1-3.59,0c-1-.06-1.51.23-1.71,1.2a8.3,8.3,0,0,1-.5,1.36h-2.92c.17-.51.3-.95.47-1.38,1.65-4.32,3.31-8.64,5-13,.25-.64.43-1.18,1.36-1.18s1.06.62,1.3,1.23l5,13.07C128.55,344.42,128.68,344.79,128.87,345.31ZM124,340l-1.8-5.16-.27,0-1.8,5.14Z"/><path d="M144.36,336.35v2.74c-1.6,0-3.15.08-4.69,0-1.19-.08-1.52.37-1.45,1.49.09,1.52,0,3,0,4.65h-2.7V329.85h10v2.68h-2.76c-.6,0-1.2,0-1.8,0-3.16.09-2.65-.66-2.72,2.81,0,.8.29,1,1.05,1C141,336.32,142.62,336.35,144.36,336.35Z"/><path d="M157,345.25h-2.81V332.53a24,24,0,0,0-2.83,0c-1.3.16-1.64-.42-1.47-1.57,0-.35,0-.7.08-1.12h11.21v2.62H157Z"/><path d="M169.81,329.87v15.36H167V329.87Z"/><path d="M414.38,329.79c2.53,0,4.93-.08,7.32,0a3.83,3.83,0,0,1,3.55,3.22c.52,2.37-.22,4.46-1.95,5.47-.27.16-.56.29-.92.47,1.19,2.07,2.35,4.1,3.65,6.35-1.16,0-2.17.05-3.17,0-.25,0-.53-.41-.7-.69-.84-1.45-1.71-2.89-2.44-4.4a1.77,1.77,0,0,0-2.55-1v6h-2.79Zm2.89,6.47c1.27,0,2.46.05,3.65,0,1-.05,1.52-.8,1.51-1.92s-.54-1.73-1.63-1.76-2.3,0-3.53,0Z"/><path d="M453.84,329.85a1.17,1.17,0,0,1,.12.15c.27,2.57.27,2.57-2.29,2.57h-5.19c0,1.09-.06,2.08,0,3.05,0,.23.58.57.9.58,1.76.06,3.51,0,5.35,0V339H448c-1.53,0-1.53,0-1.54,1.59v2h7.43v2.7H443.68v-15.4Z"/><path d="M432.86,329.79h2.85v15.47h-2.85Z"/><path d="M299.18,345.23V329.86h10.14c.05.06.09.09.09.13.42,2.46.34,2.56-2.12,2.56h-5.24v3.67h6.24v2.7c-1.68,0-3.35.06-5,0-1.06-.06-1.39.28-1.36,1.35.05,2.32,0,2.32,2.37,2.32,1.32,0,2.64.06,4,0,1-.06,1.38.31,1.25,1.29a12.7,12.7,0,0,0,0,1.39Z"/><path d="M378.56,329.82H389.9v2.68h-4.14v12.73h-2.93V332.56c-1.15,0-2.18-.05-3.2,0-.85.05-1.16-.27-1.08-1.09C378.6,331,378.56,330.45,378.56,329.82Z"/><path class="cls-1" d="M403.88,337.61c0,.84.07,1.68,0,2.51a2.59,2.59,0,0,1-2.69,2.51,2.48,2.48,0,0,1-2.63-2.41,38.64,38.64,0,0,1,0-5.38,2.45,2.45,0,0,1,2.64-2.38,2.53,2.53,0,0,1,2.66,2.4,25.19,25.19,0,0,1,0,2.75Z"/><path class="cls-1" d="M100.8,336.28a29.57,29.57,0,0,1,0-3,1.12,1.12,0,0,1,.8-.7,24.69,24.69,0,0,1,3,0c1.11,0,1.48.78,1.5,1.77s-.32,1.87-1.46,1.95S102.21,336.28,100.8,336.28Z"/><path class="cls-1" d="M124,340h-3.87l1.8-5.14.27,0Z"/><path class="cls-1" d="M417.27,336.26v-3.7c1.23,0,2.38,0,3.53,0s1.61.62,1.63,1.76-.52,1.87-1.51,1.92C419.73,336.31,418.54,336.26,417.27,336.26Z"/></g><g id="Vector_Smart_Object_copy_Layer_4_Layer_2_Image" data-name="Vector Smart Object copy + Layer 4 + Layer 2 Image"><path class="cls-1" d="M508.56,222.24h2.16V314.4H23.52V222.24h1.2c0,.44.07.87.07,1.31q0,43,0,85.92V311h2.9l357,0a3.61,3.61,0,0,0,1.19,0c.31-.12.72-.48.75-.76.14-1.78.26-3.57.26-5.36q0-23.7,0-47.4v-3.09h1.5c2.64,0,5.28,0,7.92,0,.82,0,1.13-.26,1.11-1.11-.06-2.08-.09-4.16,0-6.24,0-1-.34-1.26-1.31-1.25-9,0-18.08,0-27.12,0-.38,0-.77,0-1.14.06v8.5h7.63c2.8,0,2.82,0,2.82,2.76q0,22.08,0,44.16c0,.35-.05.69-.09,1.14h-2.23l-272.16,0H35c-1.74,0-1.75,0-1.75-1.41q0-33.84-.06-67.68c0-3.18,0-2.6,2.58-2.6l333.84,0q31.5,0,63,0c1.16,0,1.62.26,1.6,1.51-.07,3.36,0,6.72,0,10.08a4.35,4.35,0,0,1-.14.75c-1-.16-1.87-.28-2.76-.47a1.66,1.66,0,0,0-2,.82q-10.09,15.1-20.26,30.16a2.82,2.82,0,0,0-.53.93c-.42,2.34-.8,4.69-1.21,7.21l20.59,3.39-1.14,7.58,8,1.33c.38-2.23.78-4.19,1-6.17.14-1.13.48-1.58,1.67-1.23a16.87,16.87,0,0,0,2.4.35l1.16-7.64-3.71-.74c.73-4.63,1.44-9.14,2.16-13.75l-8-1.27c-.77,4.71-1.51,9.22-2.27,13.81l-11.32-1.9c3.63-5.45,7.08-10.64,10.52-15.83s6.92-10.43,10.45-15.75l-3.53-.68c0-3.81,0-7.52,0-11.23,0-1,.41-1.25,1.35-1.25q20.16,0,40.32,0c1,0,1.3.33,1.29,1.3,0,5.76,0,11.52,0,17.28a2.42,2.42,0,0,1-.09.48,35.13,35.13,0,0,0-4.06.81c-5.06,1.59-7.62,5.41-8.5,10.36-1.46,8.18-2.78,16.39-4,24.6-1.05,7,2.34,12.51,8.91,14.51a26,26,0,0,0,6.83,1.13c4.79.15,8.82-1.6,11.25-5.94a17.49,17.49,0,0,0,1.91-5.26c1.37-7.75,2.67-15.52,3.82-23.31,1.31-8.77-2.38-14.24-10.71-16.14-1.39-.31-2.82-.47-4.21-.7v-19.1h17.38c3.17,0,3.18,0,3.18,3.15q0,33.54,0,67.08c0,.42,0,.84-.07,1.36H439.56V311h69v-1.62q0-41.58,0-83.16C508.57,224.88,508.57,223.56,508.56,222.24ZM354.49,269.73l-25.62-24.89v43.89c2.41,0,4.72-.06,7,0,1.19.05,1.46-.37,1.46-1.5,0-6.92,0-13.83,0-20.75,0-.42,0-.84.07-1.62L363,289.75V245.87h-8.55Zm-146.33,19c2.23,0,4.3,0,6.38,0,2.3,0,2.08.21,2.08-2q0-10.12,0-20.27c0-.41.07-.82.12-1.53l25.53,24.81v-43.8h-8.52v23.87l-25.62-24.88ZM66.59,245V288.7c2.34,0,4.57-.07,6.8,0,1.21,0,1.57-.32,1.56-1.54-.06-6.92,0-13.84,0-20.76,0-.44.07-.88.13-1.65l25.6,24.89V245.9h-8.5v23.9Zm113.43,24,.28-.09c.23.31.48.61.7.94,3.73,5.53,7.55,11,11.15,16.63a4.21,4.21,0,0,0,4.34,2.28c2.42-.19,4.86-.05,7.65-.05-4.16-5.83-8.08-11.34-11.88-16.68a32.51,32.51,0,0,0,4.49-3.68,12.47,12.47,0,0,0,2.12-13.58,13.18,13.18,0,0,0-11.62-8.59c-4.85-.4-9.75-.13-14.63-.2-1,0-1.07.53-1.07,1.29q0,20.1,0,40.19c0,.9.35,1.21,1.19,1.21,2.12,0,4.24,0,6.36,0,.83,0,1-.42,1-1.13,0-3,0-5.92,0-8.88Zm69.7-23.06v42.78c2.42,0,4.77,0,7.12,0,1.06,0,1.36-.34,1.35-1.38,0-4.8,0-9.6,0-14.4,0-1.18.4-1.47,1.52-1.45q6.18.1,12.36,0c1.13,0,1.54.28,1.53,1.45,0,4.84,0,9.68,0,14.52,0,.88.26,1.23,1.14,1.22,1.91,0,3.83,0,5.75,0,1.62,0,1.63,0,1.62-1.69q0-18.71,0-37.43c0-1,0-1.92-.08-2.87,0-.28-.32-.76-.5-.76-2.59,0-5.18,0-7.88,0v1.58c0,4.8,0,9.6,0,14.4,0,.87-.24,1.2-1.15,1.19-4.32,0-8.64,0-13,0-1,0-1.4-.3-1.38-1.37.06-3.52,0-7,0-10.56,0-1.44,0-2.88-.09-4.31,0-.32-.41-.88-.64-.89C254.88,245.86,252.33,245.88,249.72,245.88Zm39.35,0c0,.42-.09.65-.09.89,0,9-.1,18,0,27a16.29,16.29,0,0,0,19.29,15.6,16.11,16.11,0,0,0,13.57-16c.1-8.4,0-16.8,0-25.2v-2.31c-2.59,0-5,0-7.45,0-.9,0-1.17.28-1.16,1.17,0,4,0,8,0,12,0,4.8.08,9.6-.06,14.39a7.83,7.83,0,0,1-15.65-.6c0-8.12,0-16.24,0-24.36,0-2.58,0-2.58-2.62-2.58Zm-126.14,17c-.63,0-1.09-.08-1.56-.08-4,0-8,0-12,0-.9,0-1.29-.29-1.26-1.26.06-1.87,0-3.75,0-5.63,0-1.57,0-1.58,1.63-1.58,4.76,0,9.52,0,14.28,0,.95,0,1.36-.27,1.32-1.3-.08-1.87-.11-3.76,0-5.63,0-1.15-.32-1.49-1.48-1.48-7.52.05-15,0-22.55,0-1.59,0-1.6,0-1.6,1.56q0,19.85-.05,39.7c0,1.05.31,1.48,1.33,1.42.36,0,.72,0,1.08,0H159c1.8,0,3.6,0,5.4,0,.33,0,.92-.45.93-.7.07-2.55,0-5.1,0-7.71-.48,0-.79-.06-1.1-.06-4.92,0-9.84,0-14.75,0-1,0-1.43-.27-1.39-1.34.08-2,0-4,0-6,0-1.59,0-1.59,1.6-1.59,4,0,8,0,12,0,.7,0,1.23,0,1.21-1C162.89,267.84,162.93,265.44,162.93,262.86Zm-57.5-8.5c2.88,0,5.59,0,8.3,0,2.43,0,2.21-.3,2.22,2.17,0,10.11,0,20.22,0,30.34v1.74c2.71,0,5.26,0,7.81,0,.25,0,.66-.51.69-.83a21,21,0,0,0,0-2.51q0-14.62,0-29.26c0-1.61,0-1.61,1.68-1.62,2.44,0,4.88-.05,7.31,0,1.19,0,1.53-.4,1.47-1.52-.08-1.8-.11-3.6,0-5.4.05-1.2-.36-1.56-1.57-1.55-8,.05-15.91,0-23.86,0-1.08,0-2.17,0-3.24,0-.29,0-.8.44-.8.69C105.41,249.15,105.43,251.63,105.43,254.36ZM50.71,267.23h0c0,6.68,0,13.36,0,20,0,1,.29,1.36,1.27,1.35,1.88,0,3.75,0,5.63,0,1.64,0,1.65,0,1.65-1.65q0-18.71,0-37.42c0-.8-.08-1.6,0-2.4s-.35-1.26-1.28-1.24c-2,0-3.92.06-5.88,0-1,0-1.3.26-1.3,1.28C50.73,253.88,50.71,260.56,50.71,267.23Zm394.42,28.61c2.63.44,5.09.87,7.56,1.25.25,0,.77-.23.81-.42.44-2.57.83-5.15,1.24-7.8l-8.27-1.33C446,290.32,445.59,293,445.13,295.84Z"/><path d="M508.56,222.24c0,1.32,0,2.64,0,4q0,41.58,0,83.16V311h-69v-8.51h60.37c0-.52.07-.94.07-1.36q0-33.54,0-67.08c0-3.15,0-3.15-3.18-3.15H479.44V250c1.39.23,2.82.39,4.21.7,8.33,1.9,12,7.37,10.71,16.14-1.15,7.79-2.45,15.56-3.82,23.31a17.49,17.49,0,0,1-1.91,5.26c-2.43,4.34-6.46,6.09-11.25,5.94a26,26,0,0,1-6.83-1.13c-6.57-2-10-7.51-8.91-14.51,1.23-8.21,2.55-16.42,4-24.6.88-4.95,3.44-8.77,8.5-10.36a35.13,35.13,0,0,1,4.06-.81,2.42,2.42,0,0,0,.09-.48c0-5.76,0-11.52,0-17.28,0-1-.27-1.31-1.29-1.3q-20.16,0-40.32,0c-.94,0-1.36.21-1.35,1.25.05,3.71,0,7.42,0,11.23l3.53.68c-3.53,5.32-7,10.54-10.45,15.75s-6.89,10.38-10.52,15.83l11.32,1.9c.76-4.59,1.5-9.1,2.27-13.81l8,1.27c-.72,4.61-1.43,9.12-2.16,13.75l3.71.74-1.16,7.64a16.87,16.87,0,0,1-2.4-.35c-1.19-.35-1.53.1-1.67,1.23-.25,2-.65,3.94-1,6.17l-8-1.33,1.14-7.58-20.59-3.39c.41-2.52.79-4.87,1.21-7.21a2.82,2.82,0,0,1,.53-.93q10.14-15.07,20.26-30.16a1.66,1.66,0,0,1,2-.82c.89.19,1.8.31,2.76.47a4.35,4.35,0,0,0,.14-.75c0-3.36-.07-6.72,0-10.08,0-1.25-.44-1.51-1.6-1.51q-31.5,0-63,0l-333.84,0c-2.6,0-2.58-.58-2.58,2.6q0,33.84.06,67.68c0,1.4,0,1.41,1.75,1.41h68.76l272.16,0h2.23c0-.45.09-.79.09-1.14q0-22.08,0-44.16c0-2.76,0-2.76-2.82-2.76H367.8v-8.5c.37,0,.76-.06,1.14-.06,9,0,18.08,0,27.12,0,1,0,1.34.24,1.31,1.25-.05,2.08,0,4.16,0,6.24,0,.85-.29,1.12-1.11,1.11-2.64,0-5.28,0-7.92,0h-1.5v3.09q0,23.7,0,47.4c0,1.79-.12,3.58-.26,5.36,0,.28-.44.64-.75.76a3.61,3.61,0,0,1-1.19,0l-357,0h-2.9v-1.56q0-43,0-85.92c0-.44,0-.87-.07-1.31Zm-32,71.08a5.1,5.1,0,0,0,5.15-3.18,11.82,11.82,0,0,0,1-2.95c.84-4.83,1.61-9.68,2.4-14.53.38-2.36.82-4.72,1.08-7.1.27-2.53-.09-5-2.57-6.37-3.4-1.87-8.31-2-9.83,3.91-.08.35-.18.69-.24,1q-.94,5.67-1.87,11.34c-.54,3.31-1.09,6.62-1.59,9.93C469.32,290.3,471.8,293.28,476.56,293.32Z"/><path d="M354.49,269.73V245.87H363v43.88l-25.6-24.87c0,.78-.07,1.2-.07,1.62,0,6.92-.05,13.83,0,20.75,0,1.13-.27,1.55-1.46,1.5-2.31-.08-4.62,0-7,0V244.84Z"/><path d="M208.16,288.71V244.87l25.62,24.88V245.88h8.52v43.8l-25.53-24.81c-.05.71-.11,1.12-.12,1.53q0,10.14,0,20.27c0,2.25.22,2-2.08,2C212.46,288.72,210.39,288.71,208.16,288.71Z"/><path d="M66.59,245,92.16,269.8V245.9h8.5v43.76l-25.6-24.89c-.06.77-.13,1.21-.13,1.65,0,6.92,0,13.84,0,20.76,0,1.22-.35,1.59-1.56,1.54-2.23-.09-4.46,0-6.8,0Z"/><path d="M180,268.94v9.7c0,3,0,5.92,0,8.88,0,.71-.13,1.15-1,1.13-2.12,0-4.24,0-6.36,0-.84,0-1.19-.31-1.19-1.21q0-20.1,0-40.19c0-.76.08-1.3,1.07-1.29,4.88.07,9.78-.2,14.63.2a13.18,13.18,0,0,1,11.62,8.59,12.47,12.47,0,0,1-2.12,13.58,32.51,32.51,0,0,1-4.49,3.68c3.8,5.34,7.72,10.85,11.88,16.68-2.79,0-5.23-.14-7.65.05a4.21,4.21,0,0,1-4.34-2.28c-3.6-5.62-7.42-11.1-11.15-16.63-.22-.33-.47-.63-.7-.94Zm0-9.15h0c0,1.43,0,2.87,0,4.31,0,.74.21,1.12,1,1.11,1.6,0,3.2.07,4.79,0a5.42,5.42,0,1,0-.22-10.83c-1.52,0-3,0-4.56,0-.71,0-1,.26-1,1C180,256.83,180,258.31,180,259.79Z"/><path d="M249.72,245.88c2.61,0,5.16,0,7.71,0,.23,0,.62.57.64.89.09,1.43.08,2.87.09,4.31,0,3.52,0,7,0,10.56,0,1.07.35,1.38,1.38,1.37,4.31,0,8.63,0,13,0,.91,0,1.16-.32,1.15-1.19,0-4.8,0-9.6,0-14.4v-1.58c2.7,0,5.29,0,7.88,0,.18,0,.47.48.5.76.08.95.08,1.91.08,2.87q0,18.72,0,37.43c0,1.68,0,1.69-1.62,1.69-1.92,0-3.84,0-5.75,0-.88,0-1.14-.34-1.14-1.22,0-4.84,0-9.68,0-14.52,0-1.17-.4-1.46-1.53-1.45q-6.18.1-12.36,0c-1.12,0-1.53.27-1.52,1.45.05,4.8,0,9.6,0,14.4,0,1-.29,1.41-1.35,1.38-2.35-.06-4.7,0-7.12,0Z"/><path d="M289.07,245.86h5.86c2.59,0,2.61,0,2.62,2.58,0,8.12,0,16.24,0,24.36a7.83,7.83,0,0,0,15.65.6c.14-4.79,0-9.59.06-14.39,0-4,0-8,0-12,0-.89.26-1.19,1.16-1.17,2.43.06,4.86,0,7.45,0v2.31c0,8.4.08,16.8,0,25.2a16.11,16.11,0,0,1-13.57,16A16.29,16.29,0,0,1,289,273.74c-.13-9,0-18,0-27C289,246.51,289,246.28,289.07,245.86Z"/><path d="M162.93,262.86c0,2.58,0,5,0,7.38,0,1-.51,1-1.21,1-4,0-8,0-12,0-1.57,0-1.58,0-1.6,1.59,0,2,0,4,0,6,0,1.07.36,1.35,1.39,1.34,4.91,0,9.83,0,14.75,0,.31,0,.62,0,1.1.06,0,2.61,0,5.16,0,7.71,0,.25-.6.68-.93.7-1.8.07-3.6,0-5.4,0H142.07c-.36,0-.72,0-1.08,0-1,.06-1.34-.37-1.33-1.42q.06-19.84.05-39.7c0-1.55,0-1.56,1.6-1.56,7.51,0,15,0,22.55,0,1.16,0,1.53.33,1.48,1.48-.08,1.87-.05,3.76,0,5.63,0,1-.37,1.31-1.32,1.3-4.76,0-9.52,0-14.28,0-1.6,0-1.61,0-1.63,1.58,0,1.88,0,3.76,0,5.63,0,1,.36,1.26,1.26,1.26,4,0,8,0,12,0C161.84,262.78,162.3,262.82,162.93,262.86Z"/><path d="M105.43,254.36c0-2.73,0-5.21,0-7.68,0-.25.51-.67.8-.69,1.07-.09,2.16,0,3.24,0,7.95,0,15.9,0,23.86,0,1.21,0,1.62.35,1.57,1.55-.08,1.8-.05,3.6,0,5.4.06,1.12-.28,1.56-1.47,1.52-2.43-.08-4.87,0-7.31,0-1.65,0-1.68,0-1.68,1.62q0,14.64,0,29.26a21,21,0,0,1,0,2.51c0,.32-.44.83-.69.83-2.55.06-5.1,0-7.81,0v-1.74c0-10.12,0-20.23,0-30.34,0-2.47.21-2.16-2.22-2.17C111,254.35,108.31,254.36,105.43,254.36Z"/><path d="M50.71,267.23c0-6.67,0-13.35,0-20,0-1,.33-1.31,1.3-1.28,2,.06,3.92,0,5.88,0,.93,0,1.31.32,1.28,1.24s0,1.6,0,2.4q0,18.71,0,37.42c0,1.64,0,1.65-1.65,1.65-1.88,0-3.75-.05-5.63,0-1,0-1.27-.36-1.27-1.35.05-6.67,0-13.35,0-20Z"/><path d="M445.13,295.84c.46-2.83.89-5.52,1.34-8.3l8.27,1.33c-.41,2.65-.8,5.23-1.24,7.8,0,.19-.56.46-.81.42C450.22,296.71,447.76,296.28,445.13,295.84Z"/><path class="cls-1" d="M476.56,293.32c-4.76,0-7.24-3-6.52-7.9.5-3.31,1-6.62,1.59-9.93q.92-5.67,1.87-11.34c.06-.36.16-.7.24-1,1.52-5.89,6.43-5.78,9.83-3.91,2.48,1.36,2.84,3.84,2.57,6.37-.26,2.38-.7,4.74-1.08,7.1-.79,4.85-1.56,9.7-2.4,14.53a11.82,11.82,0,0,1-1,2.95A5.1,5.1,0,0,1,476.56,293.32Z"/><path class="cls-1" d="M180,259.79c0-1.48,0-3,0-4.44,0-.72.28-1,1-1,1.52,0,3,0,4.56,0a5.42,5.42,0,1,1,.22,10.83c-1.59.07-3.19,0-4.79,0-.8,0-1-.37-1-1.11,0-1.44,0-2.88,0-4.31Z"/></g></svg>